<svg width="320" height="568" viewBox="0 0 320 568" fill="none" xmlns="http://www.w3.org/2000/svg">
<rect width="320" height="568" fill="black"/>
<path d="M135.5 419C135.5 419 135.72 427.526 138.836 430.857C141.952 434.188 150 434.5 150 434.5C150 434.5 141.952 434.734 138.836 438.065C135.72 441.396 135.5 450 135.5 450C135.5 450 135.281 441.396 132.165 438.065C129.049 434.734 121 434.5 121 434.5C121 434.5 129.049 434.188 132.165 430.857C135.281 427.526 135.5 419 135.5 419Z" fill="white"/>
<path d="M66.5 46C66.5 46 66.6592 51.5005 68.9158 53.6496C71.1724 55.7988 77 56 77 56C77 56 71.1724 56.1508 68.9158 58.3C66.6592 60.4492 66.5 66 66.5 66C66.5 66 66.3416 60.4492 64.085 58.3C61.8284 56.1508 56 56 56 56C56 56 61.8284 55.7988 64.085 53.6496C66.3416 51.5005 66.5 46 66.5 46Z" fill="white"/>
<path d="M216 310C216 310 216.121 314.675 217.841 316.502C219.56 318.329 224 318.5 224 318.5C224 318.5 219.56 318.628 217.841 320.455C216.121 322.282 216 327 216 327C216 327 215.879 322.282 214.16 320.455C212.441 318.628 208 318.5 208 318.5C208 318.5 212.441 318.329 214.16 316.502C215.879 314.675 216 310 216 310Z" fill="white"/>
<path d="M169.395 464.549C169.395 464.549 166.811 464.618 165.802 465.596C164.793 466.573 164.698 469.098 164.698 469.098C164.698 469.098 164.627 466.573 163.618 465.596C162.609 464.618 160.002 464.549 160.002 464.549C160.002 464.549 162.609 464.48 163.618 463.503C164.627 462.525 164.698 460 164.698 460C164.698 460 164.793 462.525 165.802 463.503C166.811 464.48 169.395 464.549 169.395 464.549Z" fill="white"/>
</svg>
