<svg width="320" height="568" viewBox="0 0 320 568" fill="none" xmlns="http://www.w3.org/2000/svg">
<rect width="320" height="568" fill="#FFD801"/>
<path d="M28.5 180C28.5 180 28.7199 188.251 31.8361 191.474C34.9524 194.698 43 195 43 195C43 195 34.9524 195.226 31.8361 198.45C28.7199 201.674 28.5 210 28.5 210C28.5 210 28.2813 201.674 25.165 198.45C22.0487 195.226 14 195 14 195C14 195 22.0487 194.698 25.165 191.474C28.2813 188.251 28.5 180 28.5 180Z" fill="white"/>
<path d="M263.5 195C263.5 195 263.72 203.251 266.836 206.474C269.952 209.698 278 210 278 210C278 210 269.952 210.226 266.836 213.45C263.72 216.674 263.5 225 263.5 225C263.5 225 263.281 216.674 260.165 213.45C257.049 210.226 249 210 249 210C249 210 257.049 209.698 260.165 206.474C263.281 203.251 263.5 195 263.5 195Z" fill="white"/>
<path d="M273.5 18C273.5 18 273.72 25.9757 276.836 29.0919C279.952 32.2082 288 32.5 288 32.5C288 32.5 279.952 32.7187 276.836 35.835C273.72 38.9513 273.5 47 273.5 47C273.5 47 273.281 38.9513 270.165 35.835C267.049 32.7187 259 32.5 259 32.5C259 32.5 267.049 32.2082 270.165 29.0919C273.281 25.9757 273.5 18 273.5 18Z" fill="white"/>
<path d="M103.5 83C103.5 83 103.614 87.4004 105.226 89.1197C106.837 90.839 111 91 111 91C111 91 106.837 91.1207 105.226 92.84C103.614 94.5593 103.5 99 103.5 99C103.5 99 103.387 94.5593 101.775 92.84C100.163 91.1207 96 91 96 91C96 91 100.163 90.839 101.775 89.1197C103.387 87.4004 103.5 83 103.5 83Z" fill="white"/>
<path d="M166.5 268C166.5 268 166.614 272.4 168.226 274.12C169.837 275.839 174 276 174 276C174 276 169.837 276.121 168.226 277.84C166.614 279.559 166.5 284 166.5 284C166.5 284 166.387 279.559 164.775 277.84C163.163 276.121 159 276 159 276C159 276 163.163 275.839 164.775 274.12C166.387 272.4 166.5 268 166.5 268Z" fill="white"/>
<path d="M249 389C249 389 249.152 394.775 251.301 397.032C253.45 399.289 259 399.5 259 399.5C259 399.5 253.45 399.658 251.301 401.915C249.152 404.172 249 410 249 410C249 410 248.849 404.172 246.7 401.915C244.551 399.658 239 399.5 239 399.5C239 399.5 244.551 399.289 246.7 397.032C248.849 394.775 249 389 249 389Z" fill="white"/>
<path d="M193 513C193 513 193.182 520.151 195.761 522.944C198.34 525.738 205 526 205 526C205 526 198.34 526.196 195.761 528.99C193.182 531.784 193 539 193 539C193 539 192.819 531.784 190.24 528.99C187.661 526.196 181 526 181 526C181 526 187.661 525.738 190.24 522.944C192.819 520.151 193 513 193 513Z" fill="white"/>
<path d="M41 410C41 410 41.182 417.151 43.7609 419.944C46.3399 422.738 53 423 53 423C53 423 46.3399 423.196 43.7609 425.99C41.182 428.784 41 436 41 436C41 436 40.819 428.784 38.24 425.99C35.661 423.196 29 423 29 423C29 423 35.661 422.738 38.24 419.944C40.819 417.151 41 410 41 410Z" fill="white"/>
<path d="M286 318C286 318 286.182 325.151 288.761 327.944C291.34 330.738 298 331 298 331C298 331 291.34 331.196 288.761 333.99C286.182 336.784 286 344 286 344C286 344 285.819 336.784 283.24 333.99C280.661 331.196 274 331 274 331C274 331 280.661 330.738 283.24 327.944C285.819 325.151 286 318 286 318Z" fill="white"/>
<path d="M307.395 356.549C307.395 356.549 304.811 356.618 303.802 357.596C302.793 358.573 302.698 361.098 302.698 361.098C302.698 361.098 302.627 358.573 301.618 357.596C300.609 356.618 298.002 356.549 298.002 356.549C298.002 356.549 300.609 356.48 301.618 355.503C302.627 354.525 302.698 352 302.698 352C302.698 352 302.793 354.525 303.802 355.503C304.811 356.48 307.395 356.549 307.395 356.549Z" fill="white"/>
<path d="M47.3945 163.549C47.3945 163.549 44.8113 163.618 43.802 164.596C42.7927 165.573 42.6982 168.098 42.6982 168.098C42.6982 168.098 42.6273 165.573 41.618 164.596C40.6087 163.618 38.0018 163.549 38.0018 163.549C38.0018 163.549 40.6087 163.48 41.618 162.503C42.6273 161.525 42.6982 159 42.6982 159C42.6982 159 42.7927 161.525 43.802 162.503C44.8113 163.48 47.3945 163.549 47.3945 163.549Z" fill="white"/>
<path d="M29.3945 17.549C29.3945 17.549 26.8113 17.618 25.802 18.5956C24.7927 19.5733 24.6982 22.098 24.6982 22.098C24.6982 22.098 24.6273 19.5733 23.618 18.5956C22.6087 17.618 20.0018 17.549 20.0018 17.549C20.0018 17.549 22.6087 17.4804 23.618 16.5027C24.6273 15.5251 24.6982 13 24.6982 13C24.6982 13 24.7927 15.5251 25.802 16.5027C26.8113 17.4804 29.3945 17.549 29.3945 17.549Z" fill="white"/>
</svg>
