<svg width="320" height="568" viewBox="0 0 320 568" fill="none" xmlns="http://www.w3.org/2000/svg">
<rect width="320" height="568" fill="#FFD801"/>
<path d="M89.5 189C89.5 189 89.7199 197.251 92.8361 200.474C95.9524 203.698 104 204 104 204C104 204 95.9524 204.226 92.8361 207.45C89.7199 210.674 89.5 219 89.5 219C89.5 219 89.2813 210.674 86.165 207.45C83.0487 204.226 75 204 75 204C75 204 83.0487 203.698 86.165 200.474C89.2813 197.251 89.5 189 89.5 189Z" fill="white"/>
<path d="M175.5 494C175.5 494 175.72 501.976 178.836 505.092C181.952 508.208 190 508.5 190 508.5C190 508.5 181.952 508.719 178.836 511.835C175.72 514.951 175.5 523 175.5 523C175.5 523 175.281 514.951 172.165 511.835C169.049 508.719 161 508.5 161 508.5C161 508.5 169.049 508.208 172.165 505.092C175.281 501.976 175.5 494 175.5 494Z" fill="white"/>
<path d="M49 37C49 37 49.1213 41.4004 50.8406 43.1197C52.5599 44.839 57 45 57 45C57 45 52.5599 45.1207 50.8406 46.84C49.1213 48.5593 49 53 49 53C49 53 48.8793 48.5593 47.16 46.84C45.4407 45.1207 41 45 41 45C41 45 45.4407 44.839 47.16 43.1197C48.8793 41.4004 49 37 49 37Z" fill="white"/>
<path d="M229 339C229 339 229.152 344.5 231.301 346.65C233.45 348.799 239 349 239 349C239 349 233.45 349.151 231.301 351.3C229.152 353.449 229 359 229 359C229 359 228.849 353.449 226.7 351.3C224.551 349.151 219 349 219 349C219 349 224.551 348.799 226.7 346.65C228.849 344.5 229 339 229 339Z" fill="white"/>
<path d="M227 118C227 118 227.182 124.876 229.761 127.562C232.34 130.248 239 130.5 239 130.5C239 130.5 232.34 130.689 229.761 133.375C227.182 136.061 227 143 227 143C227 143 226.819 136.061 224.24 133.375C221.661 130.689 215 130.5 215 130.5C215 130.5 221.661 130.248 224.24 127.562C226.819 124.876 227 118 227 118Z" fill="white"/>
<path d="M238.395 538.549C238.395 538.549 235.811 538.618 234.802 539.596C233.793 540.573 233.698 543.098 233.698 543.098C233.698 543.098 233.627 540.573 232.618 539.596C231.609 538.618 229.002 538.549 229.002 538.549C229.002 538.549 231.609 538.48 232.618 537.503C233.627 536.525 233.698 534 233.698 534C233.698 534 233.793 536.525 234.802 537.503C235.811 538.48 238.395 538.549 238.395 538.549Z" fill="white"/>
<path d="M45.3945 69.549C45.3945 69.549 42.8113 69.618 41.802 70.5956C40.7927 71.5733 40.6982 74.098 40.6982 74.098C40.6982 74.098 40.6273 71.5733 39.618 70.5956C38.6087 69.618 36.0018 69.549 36.0018 69.549C36.0018 69.549 38.6087 69.4804 39.618 68.5027C40.6273 67.5251 40.6982 65 40.6982 65C40.6982 65 40.7927 67.5251 41.802 68.5027C42.8113 69.4804 45.3945 69.549 45.3945 69.549Z" fill="white"/>
</svg>
