<svg width="320" height="568" viewBox="0 0 320 568" fill="none" xmlns="http://www.w3.org/2000/svg">
<rect width="320" height="568" fill="#FB2900"/>
<path d="M221.5 112C221.5 112 221.659 117.775 223.916 120.032C226.172 122.289 232 122.5 232 122.5C232 122.5 226.172 122.658 223.916 124.915C221.659 127.172 221.5 133 221.5 133C221.5 133 221.342 127.172 219.085 124.915C216.828 122.658 211 122.5 211 122.5C211 122.5 216.828 122.289 219.085 120.032C221.342 117.775 221.5 112 221.5 112Z" fill="white"/>
<path d="M94 417C94 417 94.2123 425.251 97.2211 428.474C100.23 431.698 108 432 108 432C108 432 100.23 432.226 97.2211 435.45C94.2123 438.674 94 447 94 447C94 447 93.7888 438.674 90.78 435.45C87.7712 432.226 80 432 80 432C80 432 87.7712 431.698 90.78 428.474C93.7888 425.251 94 417 94 417Z" fill="white"/>
<path d="M279.395 94.549C279.395 94.549 276.811 94.618 275.802 95.5956C274.793 96.5733 274.698 99.098 274.698 99.098C274.698 99.098 274.627 96.5733 273.618 95.5956C272.609 94.618 270.002 94.549 270.002 94.549C270.002 94.549 272.609 94.4804 273.618 93.5027C274.627 92.5251 274.698 90 274.698 90C274.698 90 274.793 92.5251 275.802 93.5027C276.811 94.4804 279.395 94.549 279.395 94.549Z" fill="white"/>
</svg>
