<svg width="320" height="568" viewBox="0 0 320 568" fill="none" xmlns="http://www.w3.org/2000/svg">
<rect width="320" height="568" fill="#FB2900"/>
<path d="M38.5 70C38.5 70 38.7199 78.2507 41.8361 81.4744C44.9524 84.6981 53 85 53 85C53 85 44.9524 85.2263 41.8361 88.45C38.7199 91.6737 38.5 100 38.5 100C38.5 100 38.2813 91.6737 35.165 88.45C32.0487 85.2263 24 85 24 85C24 85 32.0487 84.6981 35.165 81.4744C38.2813 78.2507 38.5 70 38.5 70Z" fill="white"/>
<path d="M259.5 149C259.5 149 259.72 157.251 262.836 160.474C265.952 163.698 274 164 274 164C274 164 265.952 164.226 262.836 167.45C259.72 170.674 259.5 179 259.5 179C259.5 179 259.281 170.674 256.165 167.45C253.049 164.226 245 164 245 164C245 164 253.049 163.698 256.165 160.474C259.281 157.251 259.5 149 259.5 149Z" fill="white"/>
<path d="M43.5 331C43.5 331 43.7199 338.976 46.8361 342.092C49.9524 345.208 58 345.5 58 345.5C58 345.5 49.9524 345.719 46.8361 348.835C43.7199 351.951 43.5 360 43.5 360C43.5 360 43.2813 351.951 40.165 348.835C37.0487 345.719 29 345.5 29 345.5C29 345.5 37.0487 345.208 40.165 342.092C43.2813 338.976 43.5 331 43.5 331Z" fill="white"/>
<path d="M174.5 36C174.5 36 174.614 40.4004 176.226 42.1197C177.837 43.839 182 44 182 44C182 44 177.837 44.1207 176.226 45.84C174.614 47.5593 174.5 52 174.5 52C174.5 52 174.387 47.5593 172.775 45.84C171.163 44.1207 167 44 167 44C167 44 171.163 43.839 172.775 42.1197C174.387 40.4004 174.5 36 174.5 36Z" fill="white"/>
<path d="M62.5 513C62.5 513 62.6137 517.4 64.2256 519.12C65.8375 520.839 70 521 70 521C70 521 65.8375 521.121 64.2256 522.84C62.6137 524.559 62.5 529 62.5 529C62.5 529 62.3869 524.559 60.775 522.84C59.1631 521.121 55 521 55 521C55 521 59.1631 520.839 60.775 519.12C62.3869 517.4 62.5 513 62.5 513Z" fill="white"/>
<path d="M170 225C170 225 170.152 230.775 172.301 233.032C174.45 235.289 180 235.5 180 235.5C180 235.5 174.45 235.658 172.301 237.915C170.152 240.172 170 246 170 246C170 246 169.849 240.172 167.7 237.915C165.551 235.658 160 235.5 160 235.5C160 235.5 165.551 235.289 167.7 233.032C169.849 230.775 170 225 170 225Z" fill="white"/>
<path d="M294 310C294 310 294.152 315.775 296.301 318.032C298.45 320.289 304 320.5 304 320.5C304 320.5 298.45 320.658 296.301 322.915C294.152 325.172 294 331 294 331C294 331 293.849 325.172 291.7 322.915C289.551 320.658 284 320.5 284 320.5C284 320.5 289.551 320.289 291.7 318.032C293.849 315.775 294 310 294 310Z" fill="white"/>
<path d="M70 399C70 399 70.182 406.151 72.7609 408.944C75.3399 411.738 82 412 82 412C82 412 75.3399 412.196 72.7609 414.99C70.182 417.784 70 425 70 425C70 425 69.819 417.784 67.24 414.99C64.661 412.196 58 412 58 412C58 412 64.661 411.738 67.24 408.944C69.819 406.151 70 399 70 399Z" fill="white"/>
<path d="M262 500C262 500 262.182 507.151 264.761 509.944C267.34 512.738 274 513 274 513C274 513 267.34 513.196 264.761 515.99C262.182 518.784 262 526 262 526C262 526 261.819 518.784 259.24 515.99C256.661 513.196 250 513 250 513C250 513 256.661 512.738 259.24 509.944C261.819 507.151 262 500 262 500Z" fill="white"/>
<path d="M82 153C82 153 82.182 160.151 84.7609 162.944C87.3399 165.738 94 166 94 166C94 166 87.3399 166.196 84.7609 168.99C82.182 171.784 82 179 82 179C82 179 81.819 171.784 79.24 168.99C76.661 166.196 70 166 70 166C70 166 76.661 165.738 79.24 162.944C81.819 160.151 82 153 82 153Z" fill="white"/>
<path d="M293.395 533.549C293.395 533.549 290.811 533.618 289.802 534.596C288.793 535.573 288.698 538.098 288.698 538.098C288.698 538.098 288.627 535.573 287.618 534.596C286.609 533.618 284.002 533.549 284.002 533.549C284.002 533.549 286.609 533.48 287.618 532.503C288.627 531.525 288.698 529 288.698 529C288.698 529 288.793 531.525 289.802 532.503C290.811 533.48 293.395 533.549 293.395 533.549Z" fill="white"/>
<path d="M203.395 258.549C203.395 258.549 200.811 258.618 199.802 259.596C198.793 260.573 198.698 263.098 198.698 263.098C198.698 263.098 198.627 260.573 197.618 259.596C196.609 258.618 194.002 258.549 194.002 258.549C194.002 258.549 196.609 258.48 197.618 257.503C198.627 256.525 198.698 254 198.698 254C198.698 254 198.793 256.525 199.802 257.503C200.811 258.48 203.395 258.549 203.395 258.549Z" fill="white"/>
<path d="M28.3945 370.549C28.3945 370.549 25.8113 370.618 24.802 371.596C23.7927 372.573 23.6982 375.098 23.6982 375.098C23.6982 375.098 23.6273 372.573 22.618 371.596C21.6087 370.618 19.0018 370.549 19.0018 370.549C19.0018 370.549 21.6087 370.48 22.618 369.503C23.6273 368.525 23.6982 366 23.6982 366C23.6982 366 23.7927 368.525 24.802 369.503C25.8113 370.48 28.3945 370.549 28.3945 370.549Z" fill="white"/>
</svg>
