<svg width="320" height="568" viewBox="0 0 320 568" fill="none" xmlns="http://www.w3.org/2000/svg">
<rect width="320" height="568" fill="#FB2900"/>
<path d="M252 233C252 233 252.212 241.251 255.221 244.474C258.23 247.698 266 248 266 248C266 248 258.23 248.226 255.221 251.45C252.212 254.674 252 263 252 263C252 263 251.789 254.674 248.78 251.45C245.771 248.226 238 248 238 248C238 248 245.771 247.698 248.78 244.474C251.789 241.251 252 233 252 233Z" fill="white"/>
<path d="M266 506C266 506 266.212 513.976 269.221 517.092C272.23 520.208 280 520.5 280 520.5C280 520.5 272.23 520.719 269.221 523.835C266.212 526.951 266 535 266 535C266 535 265.789 526.951 262.78 523.835C259.771 520.719 252 520.5 252 520.5C252 520.5 259.771 520.208 262.78 517.092C265.789 513.976 266 506 266 506Z" fill="white"/>
<path d="M189.5 69C189.5 69 189.614 73.4004 191.226 75.1197C192.837 76.839 197 77 197 77C197 77 192.837 77.1207 191.226 78.84C189.614 80.5593 189.5 85 189.5 85C189.5 85 189.387 80.5593 187.775 78.84C186.163 77.1207 182 77 182 77C182 77 186.163 76.839 187.775 75.1197C189.387 73.4004 189.5 69 189.5 69Z" fill="white"/>
<path d="M129 315C129 315 129.152 320.775 131.301 323.032C133.45 325.289 139 325.5 139 325.5C139 325.5 133.45 325.658 131.301 327.915C129.152 330.172 129 336 129 336C129 336 128.849 330.172 126.7 327.915C124.551 325.658 119 325.5 119 325.5C119 325.5 124.551 325.289 126.7 323.032C128.849 320.775 129 315 129 315Z" fill="white"/>
<path d="M37 43C37 43 37.182 50.1506 39.7609 52.9445C42.3399 55.7384 49 56 49 56C49 56 42.3399 56.1961 39.7609 58.99C37.182 61.7839 37 69 37 69C37 69 36.819 61.7839 34.24 58.99C31.661 56.1961 25 56 25 56C25 56 31.661 55.7384 34.24 52.9445C36.819 50.1506 37 43 37 43Z" fill="white"/>
<path d="M37 436C37 436 37.182 443.151 39.7609 445.944C42.3399 448.738 49 449 49 449C49 449 42.3399 449.196 39.7609 451.99C37.182 454.784 37 462 37 462C37 462 36.819 454.784 34.24 451.99C31.661 449.196 25 449 25 449C25 449 31.661 448.738 34.24 445.944C36.819 443.151 37 436 37 436Z" fill="white"/>
<path d="M68.3945 472.549C68.3945 472.549 65.8113 472.618 64.802 473.596C63.7927 474.573 63.6982 477.098 63.6982 477.098C63.6982 477.098 63.6273 474.573 62.618 473.596C61.6087 472.618 59.0018 472.549 59.0018 472.549C59.0018 472.549 61.6087 472.48 62.618 471.503C63.6273 470.525 63.6982 468 63.6982 468C63.6982 468 63.7927 470.525 64.802 471.503C65.8113 472.48 68.3945 472.549 68.3945 472.549Z" fill="white"/>
<path d="M289.395 262.549C289.395 262.549 286.811 262.618 285.802 263.596C284.793 264.573 284.698 267.098 284.698 267.098C284.698 267.098 284.627 264.573 283.618 263.596C282.609 262.618 280.002 262.549 280.002 262.549C280.002 262.549 282.609 262.48 283.618 261.503C284.627 260.525 284.698 258 284.698 258C284.698 258 284.793 260.525 285.802 261.503C286.811 262.48 289.395 262.549 289.395 262.549Z" fill="white"/>
<path d="M46.3945 30.549C46.3945 30.549 43.8113 30.618 42.802 31.5956C41.7927 32.5733 41.6982 35.098 41.6982 35.098C41.6982 35.098 41.6273 32.5733 40.618 31.5956C39.6087 30.618 37.0018 30.549 37.0018 30.549C37.0018 30.549 39.6087 30.4804 40.618 29.5027C41.6273 28.5251 41.6982 26 41.6982 26C41.6982 26 41.7927 28.5251 42.802 29.5027C43.8113 30.4804 46.3945 30.549 46.3945 30.549Z" fill="white"/>
</svg>
