<svg width="320" height="568" viewBox="0 0 320 568" fill="none" xmlns="http://www.w3.org/2000/svg">
<rect width="320" height="568" fill="#1627F1"/>
<path d="M261.5 484C261.5 484 261.72 492.251 264.836 495.474C267.952 498.698 276 499 276 499C276 499 267.952 499.226 264.836 502.45C261.72 505.674 261.5 514 261.5 514C261.5 514 261.281 505.674 258.165 502.45C255.049 499.226 247 499 247 499C247 499 255.049 498.698 258.165 495.474C261.281 492.251 261.5 484 261.5 484Z" fill="white"/>
<path d="M293.5 118C293.5 118 293.72 126.251 296.836 129.474C299.952 132.698 308 133 308 133C308 133 299.952 133.226 296.836 136.45C293.72 139.674 293.5 148 293.5 148C293.5 148 293.281 139.674 290.165 136.45C287.049 133.226 279 133 279 133C279 133 287.049 132.698 290.165 129.474C293.281 126.251 293.5 118 293.5 118Z" fill="white"/>
<path d="M159.5 18C159.5 18 159.72 25.9757 162.836 29.0919C165.952 32.2082 174 32.5 174 32.5C174 32.5 165.952 32.7187 162.836 35.835C159.72 38.9513 159.5 47 159.5 47C159.5 47 159.281 38.9513 156.165 35.835C153.049 32.7187 145 32.5 145 32.5C145 32.5 153.049 32.2082 156.165 29.0919C159.281 25.9757 159.5 18 159.5 18Z" fill="white"/>
<path d="M21.5 16C21.5 16 21.6137 20.4004 23.2256 22.1197C24.8375 23.839 29 24 29 24C29 24 24.8375 24.1207 23.2256 25.84C21.6137 27.5593 21.5 32 21.5 32C21.5 32 21.3869 27.5593 19.775 25.84C18.1631 24.1207 14 24 14 24C14 24 18.1631 23.839 19.775 22.1197C21.3869 20.4004 21.5 16 21.5 16Z" fill="white"/>
<path d="M111.5 148C111.5 148 111.614 152.4 113.226 154.12C114.837 155.839 119 156 119 156C119 156 114.837 156.121 113.226 157.84C111.614 159.559 111.5 164 111.5 164C111.5 164 111.387 159.559 109.775 157.84C108.163 156.121 104 156 104 156C104 156 108.163 155.839 109.775 154.12C111.387 152.4 111.5 148 111.5 148Z" fill="white"/>
<path d="M102 439C102 439 102.152 444.775 104.301 447.032C106.45 449.289 112 449.5 112 449.5C112 449.5 106.45 449.658 104.301 451.915C102.152 454.172 102 460 102 460C102 460 101.849 454.172 99.7 451.915C97.5508 449.658 92 449.5 92 449.5C92 449.5 97.5508 449.289 99.7 447.032C101.849 444.775 102 439 102 439Z" fill="white"/>
<path d="M247 269C247 269 247.182 276.151 249.761 278.944C252.34 281.738 259 282 259 282C259 282 252.34 282.196 249.761 284.99C247.182 287.784 247 295 247 295C247 295 246.819 287.784 244.24 284.99C241.661 282.196 235 282 235 282C235 282 241.661 281.738 244.24 278.944C246.819 276.151 247 269 247 269Z" fill="white"/>
<path d="M92 282C92 282 92.182 289.151 94.7609 291.944C97.3399 294.738 104 295 104 295C104 295 97.3399 295.196 94.7609 297.99C92.182 300.784 92 308 92 308C92 308 91.819 300.784 89.24 297.99C86.661 295.196 80 295 80 295C80 295 86.661 294.738 89.24 291.944C91.819 289.151 92 282 92 282Z" fill="white"/>
<path d="M84.3945 428.549C84.3945 428.549 81.8113 428.618 80.802 429.596C79.7927 430.573 79.6982 433.098 79.6982 433.098C79.6982 433.098 79.6273 430.573 78.618 429.596C77.6087 428.618 75.0018 428.549 75.0018 428.549C75.0018 428.549 77.6087 428.48 78.618 427.503C79.6273 426.525 79.6982 424 79.6982 424C79.6982 424 79.7927 426.525 80.802 427.503C81.8113 428.48 84.3945 428.549 84.3945 428.549Z" fill="white"/>
<path d="M84.3945 428.549C84.3945 428.549 81.8113 428.618 80.802 429.596C79.7927 430.573 79.6982 433.098 79.6982 433.098C79.6982 433.098 79.6273 430.573 78.618 429.596C77.6087 428.618 75.0018 428.549 75.0018 428.549C75.0018 428.549 77.6087 428.48 78.618 427.503C79.6273 426.525 79.6982 424 79.6982 424C79.6982 424 79.7927 426.525 80.802 427.503C81.8113 428.48 84.3945 428.549 84.3945 428.549Z" fill="white"/>
<path d="M280.395 106.549C280.395 106.549 277.811 106.618 276.802 107.596C275.793 108.573 275.698 111.098 275.698 111.098C275.698 111.098 275.627 108.573 274.618 107.596C273.609 106.618 271.002 106.549 271.002 106.549C271.002 106.549 273.609 106.48 274.618 105.503C275.627 104.525 275.698 102 275.698 102C275.698 102 275.793 104.525 276.802 105.503C277.811 106.48 280.395 106.549 280.395 106.549Z" fill="white"/>
</svg>
