<svg width="320" height="568" viewBox="0 0 320 568" fill="none" xmlns="http://www.w3.org/2000/svg">
<rect width="320" height="568" fill="#1627F1"/>
<path d="M41.5 479C41.5 479 41.7199 487.251 44.8361 490.474C47.9524 493.698 56 494 56 494C56 494 47.9524 494.226 44.8361 497.45C41.7199 500.674 41.5 509 41.5 509C41.5 509 41.2813 500.674 38.165 497.45C35.0487 494.226 27 494 27 494C27 494 35.0487 493.698 38.165 490.474C41.2813 487.251 41.5 479 41.5 479Z" fill="white"/>
<path d="M43.5 14C43.5 14 43.7199 22.2507 46.8361 25.4744C49.9524 28.6981 58 29 58 29C58 29 49.9524 29.2263 46.8361 32.45C43.7199 35.6737 43.5 44 43.5 44C43.5 44 43.2813 35.6737 40.165 32.45C37.0487 29.2263 29 29 29 29C29 29 37.0487 28.6981 40.165 25.4744C43.2813 22.2507 43.5 14 43.5 14Z" fill="white"/>
<path d="M70.5 220C70.5 220 70.7199 227.976 73.8361 231.092C76.9524 234.208 85 234.5 85 234.5C85 234.5 76.9524 234.719 73.8361 237.835C70.7199 240.951 70.5 249 70.5 249C70.5 249 70.2813 240.951 67.165 237.835C64.0487 234.719 56 234.5 56 234.5C56 234.5 64.0487 234.208 67.165 231.092C70.2813 227.976 70.5 220 70.5 220Z" fill="white"/>
<path d="M19.5 137C19.5 137 19.6137 141.4 21.2256 143.12C22.8375 144.839 27 145 27 145C27 145 22.8375 145.121 21.2256 146.84C19.6137 148.559 19.5 153 19.5 153C19.5 153 19.3869 148.559 17.775 146.84C16.1631 145.121 12 145 12 145C12 145 16.1631 144.839 17.775 143.12C19.3869 141.4 19.5 137 19.5 137Z" fill="white"/>
<path d="M301.5 533C301.5 533 301.614 537.4 303.226 539.12C304.837 540.839 309 541 309 541C309 541 304.837 541.121 303.226 542.84C301.614 544.559 301.5 549 301.5 549C301.5 549 301.387 544.559 299.775 542.84C298.163 541.121 294 541 294 541C294 541 298.163 540.839 299.775 539.12C301.387 537.4 301.5 533 301.5 533Z" fill="white"/>
<path d="M220.5 212C220.5 212 220.614 216.4 222.226 218.12C223.837 219.839 228 220 228 220C228 220 223.837 220.121 222.226 221.84C220.614 223.559 220.5 228 220.5 228C220.5 228 220.387 223.559 218.775 221.84C217.163 220.121 213 220 213 220C213 220 217.163 219.839 218.775 218.12C220.387 216.4 220.5 212 220.5 212Z" fill="white"/>
<path d="M151 103C151 103 151.152 108.775 153.301 111.032C155.45 113.289 161 113.5 161 113.5C161 113.5 155.45 113.658 153.301 115.915C151.152 118.172 151 124 151 124C151 124 150.849 118.172 148.7 115.915C146.551 113.658 141 113.5 141 113.5C141 113.5 146.551 113.289 148.7 111.032C150.849 108.775 151 103 151 103Z" fill="white"/>
<path d="M276 82C276 82 276.152 87.7755 278.301 90.0321C280.45 92.2887 286 92.5 286 92.5C286 92.5 280.45 92.6584 278.301 94.915C276.152 97.1716 276 103 276 103C276 103 275.849 97.1716 273.7 94.915C271.551 92.6584 266 92.5 266 92.5C266 92.5 271.551 92.2887 273.7 90.0321C275.849 87.7755 276 82 276 82Z" fill="white"/>
<path d="M221 333C221 333 221.182 340.151 223.761 342.944C226.34 345.738 233 346 233 346C233 346 226.34 346.196 223.761 348.99C221.182 351.784 221 359 221 359C221 359 220.819 351.784 218.24 348.99C215.661 346.196 209 346 209 346C209 346 215.661 345.738 218.24 342.944C220.819 340.151 221 333 221 333Z" fill="white"/>
<path d="M12 307C12 307 12.182 314.151 14.7609 316.944C17.3399 319.738 24 320 24 320C24 320 17.3399 320.196 14.7609 322.99C12.182 325.784 12 333 12 333C12 333 11.819 325.784 9.24 322.99C6.66101 320.196 0 320 0 320C0 320 6.66101 319.738 9.24 316.944C11.819 314.151 12 307 12 307Z" fill="white"/>
<path d="M129 417C129 417 129.182 424.151 131.761 426.944C134.34 429.738 141 430 141 430C141 430 134.34 430.196 131.761 432.99C129.182 435.784 129 443 129 443C129 443 128.819 435.784 126.24 432.99C123.661 430.196 117 430 117 430C117 430 123.661 429.738 126.24 426.944C128.819 424.151 129 417 129 417Z" fill="white"/>
<path d="M209 479C209 479 209.182 486.151 211.761 488.944C214.34 491.738 221 492 221 492C221 492 214.34 492.196 211.761 494.99C209.182 497.784 209 505 209 505C209 505 208.819 497.784 206.24 494.99C203.661 492.196 197 492 197 492C197 492 203.661 491.738 206.24 488.944C208.819 486.151 209 479 209 479Z" fill="white"/>
<path d="M276.395 392.549C276.395 392.549 273.811 392.618 272.802 393.596C271.793 394.573 271.698 397.098 271.698 397.098C271.698 397.098 271.627 394.573 270.618 393.596C269.609 392.618 267.002 392.549 267.002 392.549C267.002 392.549 269.609 392.48 270.618 391.503C271.627 390.525 271.698 388 271.698 388C271.698 388 271.793 390.525 272.802 391.503C273.811 392.48 276.395 392.549 276.395 392.549Z" fill="white"/>
<path d="M48.3945 167.549C48.3945 167.549 45.8113 167.618 44.802 168.596C43.7927 169.573 43.6982 172.098 43.6982 172.098C43.6982 172.098 43.6273 169.573 42.618 168.596C41.6087 167.618 39.0018 167.549 39.0018 167.549C39.0018 167.549 41.6087 167.48 42.618 166.503C43.6273 165.525 43.6982 163 43.6982 163C43.6982 163 43.7927 165.525 44.802 166.503C45.8113 167.48 48.3945 167.549 48.3945 167.549Z" fill="white"/>
</svg>
