<svg width="320" height="568" viewBox="0 0 320 568" fill="none" xmlns="http://www.w3.org/2000/svg">
<rect width="320" height="568" fill="#1627F1"/>
<path d="M251.5 48C251.5 48 251.72 56.2507 254.836 59.4744C257.952 62.6981 266 63 266 63C266 63 257.952 63.2263 254.836 66.45C251.72 69.6737 251.5 78 251.5 78C251.5 78 251.281 69.6737 248.165 66.45C245.049 63.2263 237 63 237 63C237 63 245.049 62.6981 248.165 59.4744C251.281 56.2507 251.5 48 251.5 48Z" fill="white"/>
<path d="M121 152C121 152 121.152 157.775 123.301 160.032C125.45 162.289 131 162.5 131 162.5C131 162.5 125.45 162.658 123.301 164.915C121.152 167.172 121 173 121 173C121 173 120.849 167.172 118.7 164.915C116.551 162.658 111 162.5 111 162.5C111 162.5 116.551 162.289 118.7 160.032C120.849 157.775 121 152 121 152Z" fill="white"/>
<path d="M79.5 306C79.5 306 79.6744 312.876 82.1459 315.562C84.6174 318.248 91 318.5 91 318.5C91 318.5 84.6174 318.689 82.1459 321.375C79.6744 324.061 79.5 331 79.5 331C79.5 331 79.3265 324.061 76.855 321.375C74.3835 318.689 68 318.5 68 318.5C68 318.5 74.3835 318.248 76.855 315.562C79.3265 312.876 79.5 306 79.5 306Z" fill="white"/>
<path d="M263.5 491C263.5 491 263.674 497.876 266.146 500.562C268.617 503.248 275 503.5 275 503.5C275 503.5 268.617 503.689 266.146 506.375C263.674 509.061 263.5 516 263.5 516C263.5 516 263.327 509.061 260.855 506.375C258.383 503.689 252 503.5 252 503.5C252 503.5 258.383 503.248 260.855 500.562C263.327 497.876 263.5 491 263.5 491Z" fill="white"/>
<path d="M300.395 498.549C300.395 498.549 297.811 498.618 296.802 499.596C295.793 500.573 295.698 503.098 295.698 503.098C295.698 503.098 295.627 500.573 294.618 499.596C293.609 498.618 291.002 498.549 291.002 498.549C291.002 498.549 293.609 498.48 294.618 497.503C295.627 496.525 295.698 494 295.698 494C295.698 494 295.793 496.525 296.802 497.503C297.811 498.48 300.395 498.549 300.395 498.549Z" fill="white"/>
<path d="M202.395 43.549C202.395 43.549 199.811 43.618 198.802 44.5956C197.793 45.5733 197.698 48.098 197.698 48.098C197.698 48.098 197.627 45.5733 196.618 44.5956C195.609 43.618 193.002 43.549 193.002 43.549C193.002 43.549 195.609 43.4804 196.618 42.5027C197.627 41.5251 197.698 39 197.698 39C197.698 39 197.793 41.5251 198.802 42.5027C199.811 43.4804 202.395 43.549 202.395 43.549Z" fill="white"/>
</svg>
