<svg width="320" height="568" viewBox="0 0 320 568" fill="none" xmlns="http://www.w3.org/2000/svg">
<rect width="320" height="568" fill="black"/>
<path d="M279.5 29C279.5 29 279.72 37.2507 282.836 40.4744C285.952 43.6981 294 44 294 44C294 44 285.952 44.2263 282.836 47.45C279.72 50.6737 279.5 59 279.5 59C279.5 59 279.281 50.6737 276.165 47.45C273.049 44.2263 265 44 265 44C265 44 273.049 43.6981 276.165 40.4744C279.281 37.2507 279.5 29 279.5 29Z" fill="white"/>
<path d="M235.5 345C235.5 345 235.72 353.251 238.836 356.474C241.952 359.698 250 360 250 360C250 360 241.952 360.226 238.836 363.45C235.72 366.674 235.5 375 235.5 375C235.5 375 235.281 366.674 232.165 363.45C229.049 360.226 221 360 221 360C221 360 229.049 359.698 232.165 356.474C235.281 353.251 235.5 345 235.5 345Z" fill="white"/>
<path d="M63.5 45C63.5 45 63.7199 52.9757 66.8361 56.0919C69.9524 59.2082 78 59.5 78 59.5C78 59.5 69.9524 59.7187 66.8361 62.835C63.7199 65.9513 63.5 74 63.5 74C63.5 74 63.2813 65.9513 60.165 62.835C57.0487 59.7187 49 59.5 49 59.5C49 59.5 57.0487 59.2082 60.165 56.0919C63.2813 52.9757 63.5 45 63.5 45Z" fill="white"/>
<path d="M174.5 36C174.5 36 174.614 40.4004 176.226 42.1197C177.837 43.839 182 44 182 44C182 44 177.837 44.1207 176.226 45.84C174.614 47.5593 174.5 52 174.5 52C174.5 52 174.387 47.5593 172.775 45.84C171.163 44.1207 167 44 167 44C167 44 171.163 43.839 172.775 42.1197C174.387 40.4004 174.5 36 174.5 36Z" fill="white"/>
<path d="M293.5 145C293.5 145 293.614 149.4 295.226 151.12C296.837 152.839 301 153 301 153C301 153 296.837 153.121 295.226 154.84C293.614 156.559 293.5 161 293.5 161C293.5 161 293.387 156.559 291.775 154.84C290.163 153.121 286 153 286 153C286 153 290.163 152.839 291.775 151.12C293.387 149.4 293.5 145 293.5 145Z" fill="white"/>
<path d="M68 221C68 221 68.1516 226.775 70.3008 229.032C72.4499 231.289 78 231.5 78 231.5C78 231.5 72.4499 231.658 70.3008 233.915C68.1516 236.172 68 242 68 242C68 242 67.8492 236.172 65.7 233.915C63.5508 231.658 58 231.5 58 231.5C58 231.5 63.5508 231.289 65.7 229.032C67.8492 226.775 68 221 68 221Z" fill="white"/>
<path d="M275 521C275 521 275.152 526.775 277.301 529.032C279.45 531.289 285 531.5 285 531.5C285 531.5 279.45 531.658 277.301 533.915C275.152 536.172 275 542 275 542C275 542 274.849 536.172 272.7 533.915C270.551 531.658 265 531.5 265 531.5C265 531.5 270.551 531.289 272.7 529.032C274.849 526.775 275 521 275 521Z" fill="white"/>
<path d="M76 521C76 521 76.182 528.151 78.7609 530.944C81.3399 533.738 88 534 88 534C88 534 81.3399 534.196 78.7609 536.99C76.182 539.784 76 547 76 547C76 547 75.819 539.784 73.24 536.99C70.661 534.196 64 534 64 534C64 534 70.661 533.738 73.24 530.944C75.819 528.151 76 521 76 521Z" fill="white"/>
<path d="M12 307C12 307 12.182 314.151 14.7609 316.944C17.3399 319.738 24 320 24 320C24 320 17.3399 320.196 14.7609 322.99C12.182 325.784 12 333 12 333C12 333 11.819 325.784 9.24 322.99C6.66101 320.196 0 320 0 320C0 320 6.66101 319.738 9.24 316.944C11.819 314.151 12 307 12 307Z" fill="white"/>
<path d="M173 399C173 399 173.182 406.151 175.761 408.944C178.34 411.738 185 412 185 412C185 412 178.34 412.196 175.761 414.99C173.182 417.784 173 425 173 425C173 425 172.819 417.784 170.24 414.99C167.661 412.196 161 412 161 412C161 412 167.661 411.738 170.24 408.944C172.819 406.151 173 399 173 399Z" fill="white"/>
<path d="M197 208C197 208 197.182 215.151 199.761 217.944C202.34 220.738 209 221 209 221C209 221 202.34 221.196 199.761 223.99C197.182 226.784 197 234 197 234C197 234 196.819 226.784 194.24 223.99C191.661 221.196 185 221 185 221C185 221 191.661 220.738 194.24 217.944C196.819 215.151 197 208 197 208Z" fill="white"/>
<path d="M293.395 77.549C293.395 77.549 290.811 77.618 289.802 78.5956C288.793 79.5733 288.698 82.098 288.698 82.098C288.698 82.098 288.627 79.5733 287.618 78.5956C286.609 77.618 284.002 77.549 284.002 77.549C284.002 77.549 286.609 77.4804 287.618 76.5027C288.627 75.5251 288.698 73 288.698 73C288.698 73 288.793 75.5251 289.802 76.5027C290.811 77.4804 293.395 77.549 293.395 77.549Z" fill="white"/>
<path d="M62.3945 279.549C62.3945 279.549 59.8113 279.618 58.802 280.596C57.7927 281.573 57.6982 284.098 57.6982 284.098C57.6982 284.098 57.6273 281.573 56.618 280.596C55.6087 279.618 53.0018 279.549 53.0018 279.549C53.0018 279.549 55.6087 279.48 56.618 278.503C57.6273 277.525 57.6982 275 57.6982 275C57.6982 275 57.7927 277.525 58.802 278.503C59.8113 279.48 62.3945 279.549 62.3945 279.549Z" fill="white"/>
<path d="M259.395 509.549C259.395 509.549 256.811 509.618 255.802 510.596C254.793 511.573 254.698 514.098 254.698 514.098C254.698 514.098 254.627 511.573 253.618 510.596C252.609 509.618 250.002 509.549 250.002 509.549C250.002 509.549 252.609 509.48 253.618 508.503C254.627 507.525 254.698 505 254.698 505C254.698 505 254.793 507.525 255.802 508.503C256.811 509.48 259.395 509.549 259.395 509.549Z" fill="white"/>
</svg>
