<svg width="320" height="568" viewBox="0 0 320 568" fill="none" xmlns="http://www.w3.org/2000/svg">
<rect width="320" height="568" fill="black"/>
<path d="M43.5 254C43.5 254 43.7199 262.251 46.8361 265.474C49.9524 268.698 58 269 58 269C58 269 49.9524 269.226 46.8361 272.45C43.7199 275.674 43.5 284 43.5 284C43.5 284 43.2813 275.674 40.165 272.45C37.0487 269.226 29 269 29 269C29 269 37.0487 268.698 40.165 265.474C43.2813 262.251 43.5 254 43.5 254Z" fill="white"/>
<path d="M159.5 500C159.5 500 159.72 507.976 162.836 511.092C165.952 514.208 174 514.5 174 514.5C174 514.5 165.952 514.719 162.836 517.835C159.72 520.951 159.5 529 159.5 529C159.5 529 159.281 520.951 156.165 517.835C153.049 514.719 145 514.5 145 514.5C145 514.5 153.049 514.208 156.165 511.092C159.281 507.976 159.5 500 159.5 500Z" fill="white"/>
<path d="M154.5 202C154.5 202 154.614 206.4 156.226 208.12C157.837 209.839 162 210 162 210C162 210 157.837 210.121 156.226 211.84C154.614 213.559 154.5 218 154.5 218C154.5 218 154.387 213.559 152.775 211.84C151.163 210.121 147 210 147 210C147 210 151.163 209.839 152.775 208.12C154.387 206.4 154.5 202 154.5 202Z" fill="white"/>
<path d="M51.5 69C51.5 69 51.6137 73.4004 53.2256 75.1197C54.8375 76.839 59 77 59 77C59 77 54.8375 77.1207 53.2256 78.84C51.6137 80.5593 51.5 85 51.5 85C51.5 85 51.3869 80.5593 49.775 78.84C48.1631 77.1207 44 77 44 77C44 77 48.1631 76.839 49.775 75.1197C51.3869 73.4004 51.5 69 51.5 69Z" fill="white"/>
<path d="M269 357C269 357 269.152 362.775 271.301 365.032C273.45 367.289 279 367.5 279 367.5C279 367.5 273.45 367.658 271.301 369.915C269.152 372.172 269 378 269 378C269 378 268.849 372.172 266.7 369.915C264.551 367.658 259 367.5 259 367.5C259 367.5 264.551 367.289 266.7 365.032C268.849 362.775 269 357 269 357Z" fill="white"/>
<path d="M215 59C215 59 215.182 66.1506 217.761 68.9445C220.34 71.7384 227 72 227 72C227 72 220.34 72.1961 217.761 74.99C215.182 77.7839 215 85 215 85C215 85 214.819 77.7839 212.24 74.99C209.661 72.1961 203 72 203 72C203 72 209.661 71.7384 212.24 68.9445C214.819 66.1506 215 59 215 59Z" fill="white"/>
<path d="M70 425C70 425 70.182 432.151 72.7609 434.944C75.3399 437.738 82 438 82 438C82 438 75.3399 438.196 72.7609 440.99C70.182 443.784 70 451 70 451C70 451 69.819 443.784 67.24 440.99C64.661 438.196 58 438 58 438C58 438 64.661 437.738 67.24 434.944C69.819 432.151 70 425 70 425Z" fill="white"/>
<path d="M86.3945 253.549C86.3945 253.549 83.8113 253.618 82.802 254.596C81.7927 255.573 81.6982 258.098 81.6982 258.098C81.6982 258.098 81.6273 255.573 80.618 254.596C79.6087 253.618 77.0018 253.549 77.0018 253.549C77.0018 253.549 79.6087 253.48 80.618 252.503C81.6273 251.525 81.6982 249 81.6982 249C81.6982 249 81.7927 251.525 82.802 252.503C83.8113 253.48 86.3945 253.549 86.3945 253.549Z" fill="white"/>
<path d="M263.395 40.549C263.395 40.549 260.811 40.618 259.802 41.5956C258.793 42.5733 258.698 45.098 258.698 45.098C258.698 45.098 258.627 42.5733 257.618 41.5956C256.609 40.618 254.002 40.549 254.002 40.549C254.002 40.549 256.609 40.4804 257.618 39.5027C258.627 38.5251 258.698 36 258.698 36C258.698 36 258.793 38.5251 259.802 39.5027C260.811 40.4804 263.395 40.549 263.395 40.549Z" fill="white"/>
<path d="M189.395 533.549C189.395 533.549 186.811 533.618 185.802 534.596C184.793 535.573 184.698 538.098 184.698 538.098C184.698 538.098 184.627 535.573 183.618 534.596C182.609 533.618 180.002 533.549 180.002 533.549C180.002 533.549 182.609 533.48 183.618 532.503C184.627 531.525 184.698 529 184.698 529C184.698 529 184.793 531.525 185.802 532.503C186.811 533.48 189.395 533.549 189.395 533.549Z" fill="white"/>
</svg>
