<svg width="111" height="70" viewBox="0 0 111 70" fill="none" xmlns="http://www.w3.org/2000/svg">
<path d="M9.23569 35.0001C9.23569 35.0001 25.2127 54.989 55.1083 54.9413C85.0039 54.8936 100.773 35.0001 100.773 35.0001" stroke="black" stroke-width="2" stroke-linecap="round" stroke-linejoin="round"/>
<path d="M107.551 47.5234C104.34 44.8375 99.33 40.6457 99.33 40.6457" stroke="black" stroke-width="2" stroke-linecap="round" stroke-linejoin="round"/>
<path d="M92.2734 58.9531C89.9629 55.4628 86.357 50.0156 86.357 50.0156" stroke="black" stroke-width="2" stroke-linecap="round" stroke-linejoin="round"/>
<path d="M74.582 65.7539C73.2353 61.7907 71.1336 55.6054 71.1336 55.6054" stroke="black" stroke-width="2" stroke-linecap="round" stroke-linejoin="round"/>
<path d="M34.582 65.8203C35.8223 61.8225 37.7578 55.5832 37.7578 55.5832" stroke="black" stroke-width="2" stroke-linecap="round" stroke-linejoin="round"/>
<path d="M54.8867 68.3945C54.9781 64.2097 55.1208 57.6787 55.1208 57.6787" stroke="black" stroke-width="2" stroke-linecap="round" stroke-linejoin="round"/>
<path d="M15.7109 57.582C17.9665 54.056 21.4867 48.553 21.4867 48.553" stroke="black" stroke-width="2" stroke-linecap="round" stroke-linejoin="round"/>
<path d="M2 47.25C4.82575 44.162 9.23579 39.3426 9.23579 39.3426" stroke="black" stroke-width="2" stroke-linecap="round" stroke-linejoin="round"/>
</svg>
